# xmcd
#
# Track frame offsets:
#	150
#	15744
#	30628
#	51297
#	70764
#	91698
#
# Disc length: 1470 seconds
#
# Revision: 0
# Processed by: cddbd v1.5.2PL0 Copyright (c) Steve Scherf et al.
# Submitted via: dBpowerAMP V4.0
#
DISCID=4105bc06
DTITLE=Charlie Heinemann and the Repeat Offenders - Disheartened
DYEAR=2011
DGENRE=Alt Country
TTITLE0=You Make It So Easy
TTITLE1=Exception to the Rule
TTITLE2=Disheartened
TTITLE3=L.A. (Is Toally Awesome)
TTITLE4=Electra
TTITLE5=Wanna Be Good
EXTD=
EXTT0=
EXTT1=
EXTT2=
EXTT3=
EXTT4=
EXTT5=
PLAYORDER=
